<?xml version="1.0" standalone="no"?>
<!DOCTYPE svg PUBLIC "-//W3C//DTD SVG 20010904//EN"
 "http://www.w3.org/TR/2001/REC-SVG-20010904/DTD/svg10.dtd">
<svg version="1.0" xmlns="http://www.w3.org/2000/svg"
 width="105.000000pt" height="111.000000pt" viewBox="0 0 105.000000 111.000000"
 preserveAspectRatio="xMidYMid meet">

<g transform="translate(0.000000,111.000000) scale(0.100000,-0.100000)"
fill="#000000" stroke="none">
<path d="M0 555 l0 -555 525 0 525 0 0 555 0 555 -525 0 -525 0 0 -555z m683
416 c82 -32 177 -123 219 -209 31 -62 33 -74 33 -167 -1 -125 -24 -190 -96
-269 -98 -108 -204 -152 -343 -144 -122 8 -186 36 -272 122 -96 96 -119 152
-118 291 0 87 4 108 27 158 28 61 109 154 163 188 19 11 57 29 86 40 74 27
219 22 301 -10z"/>
<path d="M440 748 c-51 -26 -86 -73 -96 -127 -5 -25 -21 -50 -55 -83 -50 -48
-62 -81 -33 -92 20 -8 81 -6 113 3 16 4 39 -1 69 -16 57 -29 106 -29 162 -1
52 26 88 75 96 130 5 28 16 46 44 68 46 36 71 87 49 101 -16 10 -82 10 -118 0
-16 -4 -39 1 -69 16 -57 29 -106 29 -162 1z"/>
</g>
</svg>
