<?xml version="1.0" standalone="no"?>
<!DOCTYPE svg PUBLIC "-//W3C//DTD SVG 20010904//EN"
 "http://www.w3.org/TR/2001/REC-SVG-20010904/DTD/svg10.dtd">
<svg version="1.0" xmlns="http://www.w3.org/2000/svg"
 width="110.000000pt" height="112.000000pt" viewBox="0 0 110.000000 112.000000"
 preserveAspectRatio="xMidYMid meet">

<g transform="translate(0.000000,112.000000) scale(0.100000,-0.100000)"
fill="#000000" stroke="none">
<path d="M0 565 l0 -555 550 0 550 0 0 555 0 555 -550 0 -550 0 0 -555z m400
513 c-63 -32 -90 -83 -90 -170 0 -93 -15 -108 -108 -108 -87 0 -138 -27 -169
-90 l-23 -44 0 217 0 217 217 0 217 0 -44 -22z m689 -205 c-1 -172 -4 -219
-11 -190 -13 47 -78 105 -127 112 -20 3 -50 10 -67 16 -42 13 -79 -4 -95 -43
-10 -25 -9 -33 8 -56 17 -23 27 -27 64 -25 84 4 94 3 107 -14 14 -20 17 -195
2 -222 -7 -14 -27 -20 -91 -25 -146 -12 -183 -49 -195 -195 -8 -95 -14 -101
-100 -101 -95 0 -94 -3 -94 247 l0 214 30 17 c27 15 30 22 30 69 l0 52 -28 -8
c-57 -17 -92 -42 -114 -84 -22 -40 -23 -53 -23 -262 0 -203 2 -223 21 -259 24
-47 59 -75 105 -86 20 -5 -77 -8 -233 -9 l-268 -1 0 217 0 217 23 -44 c25 -51
68 -79 136 -92 25 -5 58 -11 73 -14 20 -5 33 0 52 19 33 33 33 71 0 104 -26
26 -31 26 -107 7 -20 -5 -33 -1 -47 11 -17 16 -20 31 -20 113 0 123 7 132 100
132 131 0 200 68 200 198 0 86 14 102 90 102 96 0 95 4 98 -235 l3 -206 -30
-28 c-27 -25 -31 -36 -31 -80 0 -58 5 -60 65 -32 93 43 105 80 105 329 0 110
-3 213 -6 230 -9 42 -68 110 -107 121 -22 6 51 9 226 10 l257 1 -1 -227z m1
-628 l0 -225 -227 1 c-169 1 -219 3 -193 11 75 21 120 91 120 189 0 85 14 99
96 99 34 0 74 4 87 9 45 17 96 71 103 107 3 19 8 34 10 34 2 0 4 -101 4 -225z"/>
</g>
</svg>
